<svg width="48" height="48" viewBox="0 0 48 48" fill="none" xmlns="http://www.w3.org/2000/svg">
<path d="M19.4344 7.00311L34.9782 22.95C35.2516 23.2302 35.4047 23.6061 35.4047 23.9976C35.4047 24.3891 35.2516 24.7651 34.9782 25.0453L19.4344 40.9969C19.3077 41.128 19.1558 41.2323 18.9879 41.3035C18.82 41.3747 18.6395 41.4114 18.4571 41.4114C18.2747 41.4114 18.0942 41.3747 17.9263 41.3035C17.7584 41.2323 17.6065 41.128 17.4797 40.9969C17.2189 40.729 17.0729 40.3699 17.0729 39.9961C17.0729 39.6222 17.2189 39.2631 17.4797 38.9953L32.0954 23.9953L17.4844 9.00467C17.2236 8.73684 17.0776 8.37775 17.0776 8.00389C17.0776 7.63003 17.2236 7.27094 17.4844 7.00311C17.6112 6.87198 17.763 6.7677 17.931 6.69648C18.0989 6.62526 18.2794 6.58856 18.4618 6.58856C18.6441 6.58856 18.8247 6.62526 18.9926 6.69648C19.1605 6.7677 19.3123 6.87198 19.4391 7.00311" fill="white"/>
</svg>
